<?xml version="1.0" encoding="UTF-8" standalone="no"?>
<!DOCTYPE svg PUBLIC "-//W3C//DTD SVG 1.1//EN"
 "http://www.w3.org/Graphics/SVG/1.1/DTD/svg11.dtd">
<!-- Generated by graphviz version 2.40.1 (20161225.0304)
 -->
<!-- Title: pipeline Pages: 1 -->
<svg width="229pt" height="44pt"
 viewBox="0.00 0.00 229.09 44.00" xmlns="http://www.w3.org/2000/svg" xmlns:xlink="http://www.w3.org/1999/xlink">
<g id="graph0" class="graph" transform="scale(1 1) rotate(0) translate(4 40)">
<title>pipeline</title>
<polygon fill="#ffffff" stroke="transparent" points="-4,4 -4,-40 225.0946,-40 225.0946,4 -4,4"/>
<!-- text -->
<g id="node1" class="node">
<title>text</title>
<ellipse fill="none" stroke="#000000" cx="27.2976" cy="-18" rx="27.0966" ry="18"/>
<text text-anchor="middle" x="27.2976" y="-14.3" font-family="Times,serif" font-size="14.00" fill="#000000">Text</text>
</g>
<!-- pipeline -->
<g id="node2" class="node">
<title>pipeline</title>
<polygon fill="none" stroke="#000000" points="135.7976,-36 72.7976,-36 72.7976,0 135.7976,0 135.7976,-36"/>
<text text-anchor="middle" x="104.2976" y="-14.3" font-family="Times,serif" font-size="14.00" fill="#000000">Pipeline</text>
</g>
<!-- text&#45;&gt;pipeline -->
<g id="edge2" class="edge">
<title>text&#45;&gt;pipeline</title>
<path fill="none" stroke="#000000" d="M54.6687,-18C57.2697,-18 59.8707,-18 62.4717,-18"/>
<polygon fill="#000000" stroke="#000000" points="62.5041,-21.5001 72.5041,-18 62.504,-14.5001 62.5041,-21.5001"/>
</g>
<!-- image -->
<g id="node3" class="node">
<title>image</title>
<ellipse fill="none" stroke="#000000" cx="187.2976" cy="-18" rx="33.5952" ry="18"/>
<text text-anchor="middle" x="187.2976" y="-14.3" font-family="Times,serif" font-size="14.00" fill="#000000">Image</text>
</g>
<!-- pipeline&#45;&gt;image -->
<g id="edge1" class="edge">
<title>pipeline&#45;&gt;image</title>
<path fill="none" stroke="#000000" d="M136.071,-18C138.4014,-18 140.7318,-18 143.0621,-18"/>
<polygon fill="#000000" stroke="#000000" points="143.28,-21.5001 153.2799,-18 143.2799,-14.5001 143.28,-21.5001"/>
</g>
</g>
</svg>
